<svg width="431" height="217" viewBox="0 0 431 217" fill="none" xmlns="http://www.w3.org/2000/svg">
<path fill-rule="evenodd" clip-rule="evenodd" d="M24.391 144.362C45.4035 135.208 59.4152 129.172 66.426 126.256C86.4432 117.93 90.6026 116.484 93.3136 116.436C93.9099 116.426 95.2431 116.574 96.1067 117.274C96.8359 117.866 97.0365 118.665 97.1325 119.226C97.2285 119.787 97.3481 121.065 97.253 122.064C96.1683 133.461 91.4747 161.12 89.0868 173.885C88.0764 179.287 86.0869 181.098 84.1609 181.275C79.9751 181.66 76.7966 178.509 72.7425 175.851C66.3986 171.693 62.8146 169.104 56.6568 165.046C49.5403 160.356 54.1536 157.779 58.2093 153.566C59.2707 152.464 77.7133 135.689 78.0702 134.167C78.1149 133.977 78.1563 133.268 77.7349 132.893C77.3134 132.518 76.6914 132.646 76.2425 132.748C75.6062 132.893 65.4717 139.591 45.839 152.844C42.9624 154.819 40.3568 155.782 38.0223 155.731C35.4487 155.676 30.4982 154.276 26.8179 153.08C22.3039 151.612 18.7163 150.837 19.0287 148.345C19.1914 147.047 20.9789 145.719 24.391 144.362Z" fill="#2AABEE"/>
<path fill-rule="evenodd" clip-rule="evenodd" d="M93.4105 193.53C95.9885 170.755 97.7675 155.603 98.7475 148.073C101.546 126.575 102.373 122.25 103.687 119.878C103.976 119.356 104.771 118.275 105.809 117.878C106.686 117.542 107.479 117.768 108.013 117.966C108.547 118.163 109.713 118.698 110.53 119.28C119.858 125.918 141.465 143.812 151.326 152.263C155.498 155.839 156.072 158.467 155.263 160.224C153.503 164.041 149.185 165.218 144.856 167.4C138.083 170.815 134.049 172.625 127.456 175.928C119.836 179.747 119.911 174.463 118.291 168.844C117.867 167.374 112.56 143.014 111.421 141.944C111.278 141.811 110.685 141.42 110.15 141.598C109.614 141.775 109.414 142.378 109.278 142.818C109.085 143.441 109.819 155.567 111.48 179.196C111.752 182.675 111.283 185.412 110.072 187.409C108.737 189.61 105.05 193.197 102.173 195.787C98.6457 198.962 96.18 201.681 94.1781 200.165C93.1354 199.375 92.8795 197.163 93.4105 193.53Z" fill="#B7E6FF"/>
<path fill-rule="evenodd" clip-rule="evenodd" d="M172.317 160.019C153.882 146.399 141.65 137.282 135.619 132.668C118.4 119.496 115.068 116.617 113.671 114.293C113.364 113.782 112.825 112.553 113 111.455C113.148 110.528 113.74 109.954 114.178 109.591C114.615 109.227 115.662 108.485 116.575 108.068C126.987 103.308 153.287 93.5439 165.536 89.2292C170.719 87.4034 173.283 88.2208 174.399 89.8002C176.826 93.2326 175.686 97.561 175.411 102.401C174.982 109.974 174.532 114.372 174.096 121.734C173.593 130.242 169.055 127.535 163.379 126.129C161.893 125.761 138.144 118.177 136.648 118.629C136.461 118.685 135.826 119.004 135.712 119.556C135.598 120.109 136.02 120.583 136.333 120.921C136.776 121.4 147.645 126.827 168.938 137.203C172.087 138.707 174.223 140.482 175.347 142.529C176.585 144.786 177.849 149.773 178.653 153.558C179.639 158.201 180.761 161.696 178.447 162.671C177.241 163.179 175.198 162.295 172.317 160.019Z" fill="#B7E6FF"/>
<path fill-rule="evenodd" clip-rule="evenodd" d="M181.412 74.1724C160.399 83.3273 146.388 89.3627 139.377 92.2787C119.36 100.605 115.2 102.051 112.489 102.099C111.893 102.109 110.56 101.961 109.696 101.261C108.967 100.669 108.766 99.8696 108.67 99.3086C108.574 98.7476 108.455 97.4696 108.55 96.4711C109.634 85.0736 114.328 57.4151 116.716 44.6497C117.726 39.2483 119.716 37.4372 121.642 37.2599C125.828 36.8748 129.006 40.0262 133.06 42.6837C139.404 46.8422 142.988 49.4309 149.146 53.4889C156.262 58.1785 151.649 60.756 147.593 64.9684C146.532 66.0708 128.089 82.8458 127.732 84.3676C127.688 84.5579 127.646 85.2673 128.068 85.6419C128.489 86.0165 129.111 85.8884 129.56 85.7865C130.197 85.6421 140.331 78.9436 159.964 65.691C162.84 63.7157 165.446 62.7532 167.78 62.8037C170.354 62.8593 175.305 64.2588 178.985 65.4551C183.499 66.9224 187.086 67.6982 186.774 70.1902C186.611 71.4881 184.824 72.8156 181.412 74.1724Z" fill="#B7E6FF"/>
<path fill-rule="evenodd" clip-rule="evenodd" d="M112.007 23.1326C109.43 45.9074 107.651 61.0596 106.67 68.5891C103.872 90.0874 103.045 94.4127 101.731 96.7844C101.442 97.3061 100.647 98.3868 99.6087 98.7843C98.7316 99.12 97.9391 98.8941 97.4053 98.6967C96.8714 98.4994 95.7049 97.9639 94.8876 97.3823C85.5595 90.7442 63.9533 72.8501 54.0922 64.3995C49.9195 60.8237 49.3458 58.1952 50.1554 56.4386C51.9147 52.621 56.2331 51.4441 60.5617 49.2618C67.335 45.8471 71.3689 44.0377 77.9621 40.7338C85.5817 36.9156 85.5072 42.1996 87.1274 47.8181C87.5514 49.2885 92.8577 73.6478 93.9971 74.7178C94.1396 74.8516 94.7333 75.2422 95.2684 75.0645C95.8035 74.8868 96.0036 74.2841 96.1398 73.8444C96.3329 73.2212 95.5991 61.0952 93.9383 37.4664C93.6659 33.9875 94.1352 31.2498 95.3462 29.2533C96.6811 27.0523 100.368 23.4648 103.245 20.8757C106.772 17.7002 109.238 14.9811 111.24 16.4976C112.283 17.2875 112.538 19.4992 112.007 23.1326Z" fill="#B7E6FF"/>
<path fill-rule="evenodd" clip-rule="evenodd" d="M34.6856 59.0197C53.1202 72.6397 65.3528 81.7565 71.3836 86.37C88.6026 99.5424 91.9348 102.421 93.3317 104.745C93.6389 105.257 94.1775 106.485 94.0024 107.583C93.8546 108.511 93.2627 109.084 92.8249 109.448C92.3871 109.811 91.3401 110.554 90.4278 110.971C80.0149 115.73 53.7151 125.495 41.4661 129.809C36.2831 131.635 33.7199 130.818 32.6033 129.238C30.1769 125.806 31.3168 121.477 31.5913 116.638C32.0207 109.064 32.4706 104.666 32.906 97.3045C33.4091 88.7966 37.9479 91.5031 43.6238 92.9092C45.1092 93.2772 68.8581 100.862 70.3544 100.41C70.5416 100.353 71.1767 100.034 71.2904 99.4822C71.4041 98.9299 70.9821 98.4552 70.6694 98.1174C70.2262 97.6386 59.3579 92.2111 38.0644 81.835C34.9154 80.3314 32.7792 78.5562 31.6556 76.5092C30.4169 74.2526 29.1537 69.2655 28.3496 65.4802C27.3634 60.8373 26.2414 57.3424 28.5557 56.367C29.7611 55.859 31.8044 56.7432 34.6856 59.0197Z" fill="#B7E6FF"/>
<path d="M349.854 157.051C347.713 157.051 345.806 156.685 344.134 155.951C342.462 155.218 341.142 154.221 340.174 152.959C339.206 151.669 338.664 150.231 338.546 148.647H345.982C346.07 149.498 346.466 150.187 347.17 150.715C347.874 151.243 348.74 151.507 349.766 151.507C350.705 151.507 351.424 151.331 351.922 150.979C352.45 150.598 352.714 150.114 352.714 149.527C352.714 148.823 352.348 148.31 351.614 147.987C350.881 147.635 349.693 147.254 348.05 146.843C346.29 146.433 344.824 146.007 343.65 145.567C342.477 145.098 341.465 144.379 340.614 143.411C339.764 142.414 339.338 141.079 339.338 139.407C339.338 137.999 339.72 136.723 340.482 135.579C341.274 134.406 342.418 133.482 343.914 132.807C345.44 132.133 347.244 131.795 349.326 131.795C352.406 131.795 354.826 132.558 356.586 134.083C358.376 135.609 359.402 137.633 359.666 140.155H352.714C352.597 139.305 352.216 138.63 351.57 138.131C350.954 137.633 350.133 137.383 349.106 137.383C348.226 137.383 347.552 137.559 347.082 137.911C346.613 138.234 346.378 138.689 346.378 139.275C346.378 139.979 346.745 140.507 347.478 140.859C348.241 141.211 349.414 141.563 350.998 141.915C352.817 142.385 354.298 142.854 355.442 143.323C356.586 143.763 357.584 144.497 358.434 145.523C359.314 146.521 359.769 147.87 359.798 149.571C359.798 151.009 359.388 152.299 358.566 153.443C357.774 154.558 356.616 155.438 355.09 156.083C353.594 156.729 351.849 157.051 349.854 157.051Z" fill="#2AABEE"/>
<path d="M324.616 131.883C327.667 131.883 330.087 132.807 331.876 134.655C333.695 136.503 334.604 139.07 334.604 142.355V156.699H327.124V143.367C327.124 141.783 326.699 140.566 325.848 139.715C325.027 138.835 323.883 138.395 322.416 138.395C320.949 138.395 319.791 138.835 318.94 139.715C318.119 140.566 317.708 141.783 317.708 143.367V156.699H310.228V143.367C310.228 141.783 309.803 140.566 308.952 139.715C308.131 138.835 306.987 138.395 305.52 138.395C304.053 138.395 302.895 138.835 302.044 139.715C301.223 140.566 300.812 141.783 300.812 143.367V156.699H293.288V132.147H300.812V135.227C301.575 134.201 302.572 133.394 303.804 132.807C305.036 132.191 306.429 131.883 307.984 131.883C309.832 131.883 311.475 132.279 312.912 133.071C314.379 133.863 315.523 134.993 316.344 136.459C317.195 135.11 318.353 134.01 319.82 133.159C321.287 132.309 322.885 131.883 324.616 131.883Z" fill="#2AABEE"/>
<path d="M261.929 144.379C261.929 141.857 262.398 139.642 263.337 137.735C264.305 135.829 265.61 134.362 267.253 133.335C268.895 132.309 270.729 131.795 272.753 131.795C274.483 131.795 275.994 132.147 277.285 132.851C278.605 133.555 279.617 134.479 280.321 135.623V132.147H287.845V156.699H280.321V153.223C279.587 154.367 278.561 155.291 277.241 155.995C275.95 156.699 274.439 157.051 272.709 157.051C270.714 157.051 268.895 156.538 267.253 155.511C265.61 154.455 264.305 152.974 263.337 151.067C262.398 149.131 261.929 146.902 261.929 144.379ZM280.321 144.423C280.321 142.546 279.793 141.065 278.737 139.979C277.71 138.894 276.449 138.351 274.953 138.351C273.457 138.351 272.181 138.894 271.125 139.979C270.098 141.035 269.585 142.502 269.585 144.379C269.585 146.257 270.098 147.753 271.125 148.867C272.181 149.953 273.457 150.495 274.953 150.495C276.449 150.495 277.71 149.953 278.737 148.867C279.793 147.782 280.321 146.301 280.321 144.423Z" fill="#2AABEE"/>
<path d="M259.455 144.027C259.455 144.731 259.411 145.465 259.323 146.227H242.295C242.413 147.753 242.897 148.926 243.747 149.747C244.627 150.539 245.698 150.935 246.959 150.935C248.837 150.935 250.142 150.143 250.875 148.559H258.883C258.473 150.173 257.725 151.625 256.639 152.915C255.583 154.206 254.249 155.218 252.635 155.951C251.022 156.685 249.218 157.051 247.223 157.051C244.818 157.051 242.677 156.538 240.799 155.511C238.922 154.485 237.455 153.018 236.399 151.111C235.343 149.205 234.815 146.975 234.815 144.423C234.815 141.871 235.329 139.642 236.355 137.735C237.411 135.829 238.878 134.362 240.755 133.335C242.633 132.309 244.789 131.795 247.223 131.795C249.599 131.795 251.711 132.294 253.559 133.291C255.407 134.289 256.845 135.711 257.871 137.559C258.927 139.407 259.455 141.563 259.455 144.027ZM251.755 142.047C251.755 140.757 251.315 139.73 250.435 138.967C249.555 138.205 248.455 137.823 247.135 137.823C245.874 137.823 244.803 138.19 243.923 138.923C243.073 139.657 242.545 140.698 242.339 142.047H251.755Z" fill="#2AABEE"/>
<path d="M232.536 125.811V131.839H224.352V156.699H216.828V131.839H208.644V125.811H232.536Z" fill="#2AABEE"/>
<path d="M413.39 83.8834C416.44 83.8834 418.86 84.8074 420.65 86.6554C422.468 88.5034 423.378 91.0701 423.378 94.3554V108.699H415.898V95.3674C415.898 93.7834 415.472 92.5661 414.622 91.7154C413.8 90.8354 412.656 90.3954 411.19 90.3954C409.723 90.3954 408.564 90.8354 407.714 91.7154C406.892 92.5661 406.482 93.7834 406.482 95.3674V108.699H399.002V95.3674C399.002 93.7834 398.576 92.5661 397.726 91.7154C396.904 90.8354 395.76 90.3954 394.294 90.3954C392.827 90.3954 391.668 90.8354 390.818 91.7154C389.996 92.5661 389.586 93.7834 389.586 95.3674V108.699H382.062V84.1474H389.586V87.2274C390.348 86.2008 391.346 85.3941 392.578 84.8074C393.81 84.1914 395.203 83.8834 396.758 83.8834C398.606 83.8834 400.248 84.2794 401.686 85.0714C403.152 85.8634 404.296 86.9928 405.118 88.4594C405.968 87.1101 407.127 86.0101 408.594 85.1594C410.06 84.3088 411.659 83.8834 413.39 83.8834Z" fill="#0778B4"/>
<path d="M350.702 96.3794C350.702 93.8567 351.171 91.6421 352.11 89.7354C353.078 87.8287 354.383 86.3621 356.026 85.3354C357.669 84.3087 359.502 83.7954 361.526 83.7954C363.257 83.7954 364.767 84.1474 366.058 84.8514C367.378 85.5554 368.39 86.4794 369.094 87.6234V84.1474H376.618V108.699H369.094V105.223C368.361 106.367 367.334 107.291 366.014 107.995C364.723 108.699 363.213 109.051 361.482 109.051C359.487 109.051 357.669 108.538 356.026 107.511C354.383 106.455 353.078 104.974 352.11 103.067C351.171 101.131 350.702 98.9021 350.702 96.3794ZM369.094 96.4234C369.094 94.5461 368.566 93.0647 367.51 91.9794C366.483 90.8941 365.222 90.3514 363.726 90.3514C362.23 90.3514 360.954 90.8941 359.898 91.9794C358.871 93.0354 358.358 94.5021 358.358 96.3794C358.358 98.2567 358.871 99.7527 359.898 100.867C360.954 101.953 362.23 102.495 363.726 102.495C365.222 102.495 366.483 101.953 367.51 100.867C368.566 99.7821 369.094 98.3007 369.094 96.4234Z" fill="#0778B4"/>
<path d="M340.902 88.2394C341.782 86.8901 342.882 85.8341 344.202 85.0714C345.522 84.2794 346.989 83.8834 348.602 83.8834V91.8474H346.534C344.657 91.8474 343.249 92.2581 342.31 93.0794C341.371 93.8714 340.902 95.2794 340.902 97.3034V108.699H333.378V84.1474H340.902V88.2394Z" fill="#0778B4"/>
<path d="M312.843 83.7954C314.573 83.7954 316.084 84.1474 317.375 84.8514C318.695 85.5554 319.707 86.4794 320.411 87.6234V84.1474H327.935V108.655C327.935 110.914 327.48 112.953 326.571 114.771C325.691 116.619 324.327 118.086 322.479 119.171C320.66 120.257 318.387 120.799 315.659 120.799C312.021 120.799 309.073 119.934 306.815 118.203C304.556 116.502 303.265 114.185 302.943 111.251H310.379C310.613 112.19 311.171 112.923 312.051 113.451C312.931 114.009 314.016 114.287 315.307 114.287C316.861 114.287 318.093 113.833 319.003 112.923C319.941 112.043 320.411 110.621 320.411 108.655V105.179C319.677 106.323 318.665 107.262 317.375 107.995C316.084 108.699 314.573 109.051 312.843 109.051C310.819 109.051 308.985 108.538 307.343 107.511C305.7 106.455 304.395 104.974 303.427 103.067C302.488 101.131 302.019 98.9021 302.019 96.3794C302.019 93.8567 302.488 91.6421 303.427 89.7354C304.395 87.8287 305.7 86.3621 307.343 85.3354C308.985 84.3087 310.819 83.7954 312.843 83.7954ZM320.411 96.4234C320.411 94.5461 319.883 93.0647 318.827 91.9794C317.8 90.8941 316.539 90.3514 315.043 90.3514C313.547 90.3514 312.271 90.8941 311.215 91.9794C310.188 93.0354 309.675 94.5021 309.675 96.3794C309.675 98.2567 310.188 99.7527 311.215 100.867C312.271 101.953 313.547 102.495 315.043 102.495C316.539 102.495 317.8 101.953 318.827 100.867C319.883 99.7821 320.411 98.3007 320.411 96.4234Z" fill="#0778B4"/>
<path d="M299.545 96.0274C299.545 96.7314 299.501 97.4647 299.413 98.2274H282.385C282.503 99.7527 282.987 100.926 283.837 101.747C284.717 102.539 285.788 102.935 287.049 102.935C288.927 102.935 290.232 102.143 290.965 100.559H298.973C298.563 102.173 297.815 103.625 296.729 104.915C295.673 106.206 294.339 107.218 292.725 107.951C291.112 108.685 289.308 109.051 287.313 109.051C284.908 109.051 282.767 108.538 280.889 107.511C279.012 106.485 277.545 105.018 276.489 103.111C275.433 101.205 274.905 98.9754 274.905 96.4234C274.905 93.8714 275.419 91.6421 276.445 89.7354C277.501 87.8287 278.968 86.3621 280.845 85.3354C282.723 84.3087 284.879 83.7954 287.313 83.7954C289.689 83.7954 291.801 84.2941 293.649 85.2914C295.497 86.2887 296.935 87.7114 297.961 89.5594C299.017 91.4074 299.545 93.5634 299.545 96.0274ZM291.845 94.0474C291.845 92.7567 291.405 91.7301 290.525 90.9674C289.645 90.2047 288.545 89.8234 287.225 89.8234C285.964 89.8234 284.893 90.1901 284.013 90.9234C283.163 91.6567 282.635 92.6981 282.429 94.0474H291.845Z" fill="#0778B4"/>
<path d="M270.949 76.1394V108.699H263.425V76.1394H270.949Z" fill="#0778B4"/>
<path d="M259.455 96.0274C259.455 96.7314 259.411 97.4647 259.323 98.2274H242.295C242.413 99.7527 242.897 100.926 243.747 101.747C244.627 102.539 245.698 102.935 246.959 102.935C248.837 102.935 250.142 102.143 250.875 100.559H258.883C258.473 102.173 257.725 103.625 256.639 104.915C255.583 106.206 254.249 107.218 252.635 107.951C251.022 108.685 249.218 109.051 247.223 109.051C244.818 109.051 242.677 108.538 240.799 107.511C238.922 106.485 237.455 105.018 236.399 103.111C235.343 101.205 234.815 98.9754 234.815 96.4234C234.815 93.8714 235.329 91.6421 236.355 89.7354C237.411 87.8287 238.878 86.3621 240.755 85.3354C242.633 84.3087 244.789 83.7954 247.223 83.7954C249.599 83.7954 251.711 84.2941 253.559 85.2914C255.407 86.2887 256.845 87.7114 257.871 89.5594C258.927 91.4074 259.455 93.5634 259.455 96.0274ZM251.755 94.0474C251.755 92.7567 251.315 91.7301 250.435 90.9674C249.555 90.2047 248.455 89.8234 247.135 89.8234C245.874 89.8234 244.803 90.1901 243.923 90.9234C243.073 91.6567 242.545 92.6981 242.339 94.0474H251.755Z" fill="#0778B4"/>
<path d="M232.536 77.8114V83.8394H224.352V108.699H216.828V83.8394H208.644V77.8114H232.536Z" fill="#0778B4"/>
</svg>
