<?xml version="1.0" encoding="UTF-8"?>
<svg id="Capa_1" data-name="Capa 1" xmlns="http://www.w3.org/2000/svg" version="1.1" viewBox="0 0 16 16">
  <defs>
    <style>
      .cls-1 {
        fill: #0778b4;
        stroke-width: 0px;
      }
    </style>
  </defs>
  <path class="cls-1" d="M0,1.1C0,.5.5,0,1.2,0h13.6c.6,0,1.2.5,1.2,1.1v13.7c0,.6-.5,1.1-1.2,1.1H1.2c-.6,0-1.2-.5-1.2-1.1V1.1ZM4.9,13.4v-7.2h-2.4v7.2h2.4ZM3.7,5.2c.8,0,1.4-.6,1.4-1.2,0-.7-.5-1.2-1.3-1.2s-1.4.5-1.4,1.2.5,1.2,1.3,1.2h0ZM8.7,13.4v-4c0-.2,0-.4,0-.6.2-.4.6-.9,1.2-.9s1.2.7,1.2,1.6v3.9h2.4v-4.1c0-2.2-1.2-3.3-2.8-3.3s-1.8.7-2.2,1.2h0s0,0,0,0h0v-1h-2.4c0,.7,0,7.2,0,7.2h2.4Z"/>
</svg>